<svg width="511" height="511.999" xmlns="http://www.w3.org/2000/svg">

 <g>
  <title>background</title>
  <rect fill="none" id="canvas_background" height="548" width="1278" y="-1" x="-1"/>
 </g>
 <g>
  <title>Layer 1</title>
  <path id="svg_1" d="m383.757813,464.9375l-1.23047,0l-30.5625,-305.64844l7.74609,0c4.14063,0 7.5,-3.35547 7.5,-7.5l0,-40.07812c-0.0039,-61.59766 -50.11328,-111.71094 -111.71093,-111.71094c-61.59766,0 -111.71094,50.11328 -111.71094,111.71094l0,40.07812c0,4.14453 3.35937,7.5 7.5,7.5l7.74609,0l-30.5625,305.64453l-1.23047,0c-8.55468,0 -15.51562,6.96094 -15.51562,15.51563l0,16.03516c0,8.55468 6.96094,15.51562 15.51562,15.51562l256.51563,0c8.55859,0 15.51563,-6.96094 15.51563,-15.51562l0,-16.03516c0,-8.55469 -6.96094,-15.51172 -15.51563,-15.51172zm-136.78906,-394.63672l8.53125,-5.69141l8.53125,5.6875l0,25.89454l-17.0625,0l0,-25.89063zm57.64844,40.89063c1.75781,12.98828 8.02734,24.55859 17.16015,33.09765l-132.55859,0c9.13672,-8.53906 15.40625,-20.10937 17.16406,-33.09765l98.23438,0zm-49.11719,-96.19141c53.32422,0 96.70703,43.38281 96.70703,96.71094l0,31.875c-18.8125,-3.53125 -33.09766,-20.07032 -33.09766,-39.89453c0,-4.14063 -3.35547,-7.5 -7.5,-7.5l-32.57812,0l0,-17.09766c0.16797,0.01172 0.33984,0.03516 0.50781,0.03516c2.42188,0 4.80078,-1.17188 6.24609,-3.33985c2.30079,-3.44531 1.36719,-8.10156 -2.07812,-10.39844l-24.04688,-16.03515c-2.51953,-1.67969 -5.80078,-1.67969 -8.32031,0l-24.04687,16.03125c-3.44922,2.29687 -4.37891,6.95703 -2.08203,10.40234c1.54687,2.32031 4.16015,3.49219 6.75781,3.31641l0,17.08594l-32.58203,0c-4.14453,0 -7.5,3.35937 -7.5,7.5c0,19.82421 -14.28516,36.36328 -33.09766,39.89062l0,-31.875c0,-53.32422 43.38281,-96.70703 96.71094,-96.70703zm128.77344,481.48438c0,0.28515 -0.23047,0.51562 -0.51563,0.51562l-256.51562,0c-0.28516,0 -0.51563,-0.23047 -0.51563,-0.51562l0,-16.03125c0,-0.28516 0.23047,-0.51563 0.51563,-0.51563l24.04296,0c4.14454,0 7.5,-3.35937 7.5,-7.5c0,-4.14453 -3.35546,-7.5 -7.5,-7.5l-7.73828,0l30.5625,-305.64844l162.78125,0l30.5625,305.64844l-184.10156,0c-4.14062,0 -7.5,3.35547 -7.5,7.5c0,4.14063 3.35938,7.5 7.5,7.5l200.40625,0c0.28516,0 0.51563,0.23047 0.51563,0.51563l0,16.03125zm0,0"/>
  <path id="svg_2" d="m303.597233,447.87109c4.14063,0 7.5,-3.35937 7.5,-7.5s-3.35937,-7.5 -7.5,-7.5l-21.2539,0c2.98047,-4.8125 4.70312,-10.48437 4.70312,-16.54687c0,-18.01172 -22.93359,-49.10938 -25.54687,-52.59766c-1.41797,-1.89062 -3.64063,-3 -6,-3c-2.36328,0 -4.58203,1.10938 -6,3c-0.25781,0.33985 -6.31641,8.44141 -12.45703,18.67578c-8.8086,14.6875 -13.09375,25.78125 -13.09375,33.92188c0,6.0625 1.72656,11.73437 4.70312,16.54687l-45.15625,0l72.00391,-128.28515l78.26953,139.45703l0.00391,-0.00391c1.30078,2.3086 3.76953,3.83203 6.52734,3.83203c0.25,0 0.50391,-0.01171 0.75781,-0.03906c4.1211,-0.41015 7.12891,-4.08594 6.71485,-8.20703l-25.64454,-256.4375c-0.0664,-0.75 -0.24218,-1.47266 -0.51562,-2.14844c-0.44531,-1.09765 -1.13672,-2.05859 -2.00391,-2.8164c0,-0.00391 -0.0039,-0.00391 -0.0039,-0.00391c-0.78516,-0.69141 -1.71875,-1.22266 -2.7461,-1.53516l-0.0039,0c-0.72266,-0.22265 -1.47657,-0.33984 -2.28125,-0.32812l-83.125,0c-4.14063,0 -7.5,3.35937 -7.5,7.5s3.35937,7.5 7.5,7.5l70.39843,0l-46.34765,82.58203l-52.6211,-93.75391l-0.0039,0.00391c-1.15625,-2.05859 -3.26172,-3.54297 -5.78906,-3.79687c-4.11719,-0.41407 -7.79688,2.59765 -8.20704,6.71875l-25.65234,256.51562c-0.21094,2.10938 0.48047,4.20703 1.90234,5.77734c1.42188,1.57422 3.44141,2.46875 5.5586,2.46875l132.91015,0zm-64.64843,-31.54687c0,-4.52734 4.60937,-17.51172 16.55078,-35.17969c11.9414,17.66797 16.54687,30.65235 16.54687,35.17969c0,9.125 -7.42187,16.54687 -16.54687,16.54687s-16.55078,-7.42187 -16.55078,-16.54687zm70.61328,-208.0625l19.71094,197.12109l-65.17188,-116.12109l45.46094,-81zm-108.125,0l45.46094,81l-65.17579,116.12109l19.71485,-197.12109zm0,0"/>
 </g>
</svg>